{"title":"Piranha.2010.R5.LINE.XVID.AC3.Feel-Free","uid":5869018,"size":1469193091,"categoryP":"video","categoryS":"movies","magnet":"?xt=urn:btih:9a1a949cc380953db9ad1e49d4a4e542722a4364&amp;dn=Piranha.2010.R5.LINE.XVID.AC3.Feel-Free&amp;tr=udp%3A%2F%2Ftracker.openbittorrent.com%3A80&amp;tr=udp%3A%2F%2Fopen.demonii.com%3A1337&amp;tr=udp%3A%2F%2Ftracker.coppersurfer.tk%3A6969&amp;tr=udp%3A%2F%2Fexodus.desync.com%3A6969","seeders":0,"leechers":0,"uploader":"neon","files":-1,"time":1286389931,"description":"Genre:Action | Horror | Sci-Fi | Thriller\nLanguage:English\n &lt;a href=&quot; http://www.imdb.com/title/tt0464154/&quot; rel=&quot;nofollow&quot; target=&quot;_NEW&quot;&gt; http://www.imdb.com/title/tt0464154/&lt;/a&gt;\nSource:DVD\nSubtitles:Romana\n\nGeneral\nComplete name :Piranha.2010.R5.LINE.XVID.AC3.Feel-Free.avi\nFormat : AVI\nFormat/Info : Audio Video Interleave\nFile size : 1.37 GiB\nDuration : 1h 24mn\nOverall bit rate : 2 308 Kbps\nVideo #0\nMuxing mode : Packed bitstream\nCodec ID : XVID\nCodec ID/Hint : XviD\nDuration : 1h 24mn\nBit rate : 1 850 Kbps\nWidth : 720 pixels\nHeight : 304 pixels\nDisplay aspect ratio : 2.35:1\nFrame rate : 25.000 fps\nResolution : 24 bits\nColorimetry : 4:2:0\nScan type : Progressive\nBits/(Pixel*Frame) : 0.338\nStream size : 1.10 GiB (80%)\nWriting library : XviD 1.2.1 (UTC 2008-12-04)\nAudio #1\nID : 1\nFormat : AC-3\nFormat/Info : Audio Coding 3\nCodec ID : 2000\nDuration : 1h 24mn\nBit rate mode : Constant\nBit rate : 448 Kbps\nChannel(s) : 6 channels\nChannel positions : Front: L C R, Surround: L R, LFE\nSampling rate : 48.0 KHz\nStream size : 272 MiB (19%)\nAlignment : Split accross interleaves\nInterleave, duration : 40 ms (1.00 video frame)\nInterleave, preload duration : 500 ms\n\nPlot:\nAfter a sudden underwater tremor sets free scores of the prehistoric man-eating fish, an unlikely group of strangers must band together to stop themselves from becoming fish food for the area's new razor-toothed residents\n\n &lt;a href=&quot;\nhttp://www.youtube.com/watch?v=ieIURh4g_o8&amp;feature=player_embedded&quot; rel=&quot;nofollow&quot; target=&quot;_NEW&quot;&gt;\nhttp://www.youtube.com/watch?v=ieIURh4g_o8&amp;feature=player_embedded&lt;/a&gt; ","torrent":{"xt":"urn:btih:9a1a949cc380953db9ad1e49d4a4e542722a4364","amp;dn":"Piranha.2010.R5.LINE.XVID.AC3.Feel-Free","amp;tr":["udp%3A%2F%2Ftracker.openbittorrent.com%3A80","udp%3A%2F%2Fopen.demonii.com%3A1337","udp%3A%2F%2Ftracker.coppersurfer.tk%3A6969","udp%3A%2F%2Fexodus.desync.com%3A6969"],"infoHash":"9a1a949cc380953db9ad1e49d4a4e542722a4364","infoHashBuffer":{"type":"Buffer","data":[154,26,148,156,195,128,149,61,185,173,30,73,212,164,229,66,114,42,67,100]},"announce":[],"urlList":[]}}